<?xml version="1.0" encoding="utf-8"?>
<!-- Generator: Adobe Illustrator 15.0.0, SVG Export Plug-In . SVG Version: 6.00 Build 0)  -->
<!DOCTYPE svg PUBLIC "-//W3C//DTD SVG 1.1//EN" "http://www.w3.org/Graphics/SVG/1.1/DTD/svg11.dtd">
<svg version="1.1" id="圖層_1" xmlns="http://www.w3.org/2000/svg" xmlns:xlink="http://www.w3.org/1999/xlink" x="0px" y="0px"
	 width="600px" height="600px" viewBox="0 0 600 600" enable-background="new 0 0 600 600" xml:space="preserve">
<radialGradient id="SVGID_1_" cx="245.4238" cy="450.3525" r="425.4707" gradientTransform="matrix(1.3113 0 0 1.3113 -10.7378 -5.3267)" gradientUnits="userSpaceOnUse">
	<stop  offset="0" style="stop-color:#FFF100"/>
	<stop  offset="0.1959" style="stop-color:#FEEF01"/>
	<stop  offset="0.2665" style="stop-color:#F9E806"/>
	<stop  offset="0.3168" style="stop-color:#F1DD0F"/>
	<stop  offset="0.3575" style="stop-color:#E6CC1C"/>
	<stop  offset="0.3923" style="stop-color:#D7B62C"/>
	<stop  offset="0.4232" style="stop-color:#C59A40"/>
	<stop  offset="0.4509" style="stop-color:#B07A58"/>
	<stop  offset="0.4758" style="stop-color:#975672"/>
	<stop  offset="0.4788" style="stop-color:#945176"/>
</radialGradient>
<path fill="url(#SVGID_1_)" stroke="#221714" stroke-width="6" stroke-miterlimit="10" d="M436.11,555.268
	c46.537-77.126,152.71-146.271,110.296-328.096c0,0-59.651-225.312-282.835-215.152c0,0-263.767,6.613-222.278,317.986
	c0,0,29.437,140.87,139.442,263.347"/>
<g>
	<path fill="#F9E6C9" stroke="#211D1E" stroke-width="6" d="M318.464,522.962c5.234-1.994,8.942-5.176,11.565-8.364l-3.908-16.544
		c-9.507,2.54-18.547,4.062-27.091,4.737l3.708,15.721C306.785,522.45,312.153,525.362,318.464,522.962z"/>
</g>
<path fill="#F9E6C9" stroke="#221714" stroke-width="6" stroke-miterlimit="10" d="M479.535,298.011
	c1.143,6.761,2.099,13.764,2.805,21.065c0,0-0.15,31.246-9.189,72.039c23.163-4.279,40.668-23.847,40.668-47.357
	C513.818,322.462,499.479,304.42,479.535,298.011z"/>
<path fill="#F9E6C9" stroke="#221714" stroke-width="6" stroke-miterlimit="10" d="M505.689,268.351
	c0,0-1.147,226.936-200.484,235.357c0,0-156.655-46.235-167.349-128.186c0,0-50.013-25.221-50.462-56.753
	c-0.458-31.502,26.637-56.727,58.041-25.217c31.398,31.533,5.784-193.327,194.845-199.614
	C340.28,93.938,489.179,110.754,505.689,268.351z"/>
<radialGradient id="SVGID_2_" cx="250.3535" cy="175.3252" r="128.1763" gradientTransform="matrix(1.3113 0 0 1.3113 -10.7378 -5.3267)" gradientUnits="userSpaceOnUse">
	<stop  offset="0" style="stop-color:#FFF100"/>
	<stop  offset="0.0866" style="stop-color:#FDED03"/>
	<stop  offset="0.165" style="stop-color:#F5E20B"/>
	<stop  offset="0.2403" style="stop-color:#E9D018"/>
	<stop  offset="0.3136" style="stop-color:#D7B62C"/>
	<stop  offset="0.3855" style="stop-color:#C19544"/>
	<stop  offset="0.4563" style="stop-color:#A56C63"/>
	<stop  offset="0.5251" style="stop-color:#853C86"/>
	<stop  offset="0.5394" style="stop-color:#7E318E"/>
</radialGradient>
<path fill="url(#SVGID_2_)" stroke="#221714" stroke-width="6" stroke-miterlimit="10" d="M484.207,373.2
	c0,0,34.115-90.735-37.251-120.753c-71.355-30.036-139.488-28.366-169.711-57.404c0,0,24.841,26.297,70.968,54.856
	c0,0-112.006-27.857-130.621-78.694c0,0-71.06,128.162-64.974,162.81c0,0-96.067-219.62,127.026-255.175
	C279.644,78.838,579.925,25.872,484.207,373.2z"/>
<path fill="none" stroke="#211D1E" stroke-width="6" d="M288.563,300.391c0,0-34.797-39.042-69.625,2.118l-5.345-4.979"/>
<path fill="none" stroke="#211D1E" stroke-width="6" d="M380.19,300.808c0,0,34.819-39.013,69.624,2.163l5.37-4.982"/>
<path fill="none" stroke="#211D1E" stroke-width="6" d="M307.468,270.984c0,0-53.521-25.811-110.066,11.384"/>
<path fill="none" stroke="#211D1E" stroke-width="6" d="M464.804,279.285c0,0-46.938-35.697-103.444,1.49"/>
<path fill="none" stroke="#211D1E" stroke-width="6" d="M106.075,320.934c0,0,20.476-6.541,18.076,16.152"/>
<path fill="none" stroke="#211D1E" stroke-width="6" d="M337.054,363.545c0,0,16.889-20.635,29.824,2.392
	c0,0,3.942,11.287-13.324,23.681"/>
<path fill="#FFFFFF" stroke="#211D1E" stroke-width="6" d="M285.292,417.42c0,0,53.748,14.824,85.423-4.692
	C370.715,412.728,341.326,492.663,285.292,417.42z"/>
<g>
	<path fill-rule="evenodd" clip-rule="evenodd" fill="#F9E6C9" stroke="#221714" stroke-width="6" stroke-miterlimit="10" d="
		M514.505,495.047c-12.544-8.408-27.449,5.046-27.089-0.91c0.202-3.093,2.405-6.589,2.06-10.267
		c-0.481-5.188-6.037-19.326-21.416-18.839c-7.049,0.232-15.364,3.956-13.562,9.922c0.346,1.141,7.062,10.226,8.012,11.686
		c2.346,3.586,4.172,6.858,1.934,12.369c-1.739,4.19-20.481,15.048-23.091,16.238l-44.187,19.771
		c-3.763,1.729-37.318-22.179-36.01-21.139l-11.965,18.979c1.288,1.058,53.568,25.102,57.321,23.389l58.801-20.712
		c3.775-1.714,31.136,13.558,44.305,8.656C555.372,527.163,514.505,495.047,514.505,495.047z"/>
	<path fill-rule="evenodd" clip-rule="evenodd" fill="#F9E6C9" stroke="#221714" stroke-width="6" stroke-miterlimit="10" d="
		M490.418,515.681c3.608,4.227,12.563,2.506,20.043-3.887c7.48-6.37,10.618-14.983,7.004-19.2
		c-3.621-4.242-12.603-2.503-20.054,3.89C489.941,502.86,486.791,511.464,490.418,515.681z"/>
	<path fill-rule="evenodd" clip-rule="evenodd" fill="#F9E6C9" stroke="#221714" stroke-width="6" stroke-miterlimit="10" d="
		M498.465,525.096c3.608,4.241,12.603,2.497,20.04-3.877c7.481-6.38,10.621-14.968,6.987-19.201
		c-3.601-4.226-12.583-2.489-20.064,3.881C497.988,512.298,494.854,520.885,498.465,525.096z"/>
	<path fill-rule="evenodd" clip-rule="evenodd" fill="#F9E6C9" stroke="#221714" stroke-width="6" stroke-miterlimit="10" d="
		M503.216,538.378c4.169,4.887,14.478,2.963,22.985-4.31c8.519-7.271,12.037-17.138,7.857-22.042
		c-4.19-4.873-14.47-2.956-22.991,4.331C502.555,523.626,499.035,533.491,503.216,538.378z"/>
</g>
<g>
	<path fill-rule="evenodd" clip-rule="evenodd" fill="#F9E6C9" stroke="#221714" stroke-width="6" stroke-miterlimit="10" d="
		M136.525,495.047c12.545-8.408,27.449,5.046,27.088-0.91c-0.202-3.093-2.404-6.589-2.059-10.267
		c0.481-5.188,6.037-19.326,21.416-18.839c7.048,0.232,15.364,3.956,13.562,9.921c-0.346,1.142-7.061,10.227-8.011,11.687
		c-2.346,3.586-4.172,6.858-1.934,12.369c1.739,4.19,20.481,15.048,23.091,16.238l44.186,19.771
		c3.763,1.729,37.318-22.179,36.01-21.139l11.965,18.979c-1.289,1.058-53.568,25.102-57.321,23.389l-58.801-20.712
		c-3.775-1.714-31.135,13.558-44.305,8.656C95.657,527.163,136.525,495.047,136.525,495.047z"/>
	<path fill-rule="evenodd" clip-rule="evenodd" fill="#F9E6C9" stroke="#221714" stroke-width="6" stroke-miterlimit="10" d="
		M160.612,515.681c-3.608,4.227-12.564,2.506-20.043-3.887c-7.481-6.37-10.619-14.983-7.004-19.2
		c3.622-4.241,12.603-2.503,20.054,3.891C161.089,502.86,164.238,511.464,160.612,515.681z"/>
	<path fill-rule="evenodd" clip-rule="evenodd" fill="#F9E6C9" stroke="#221714" stroke-width="6" stroke-miterlimit="10" d="
		M152.565,525.096c-3.608,4.241-12.603,2.497-20.041-3.877c-7.481-6.38-10.621-14.967-6.987-19.201
		c3.601-4.226,12.583-2.489,20.064,3.881C153.042,512.298,156.177,520.886,152.565,525.096z"/>
	<path fill-rule="evenodd" clip-rule="evenodd" fill="#F9E6C9" stroke="#221714" stroke-width="6" stroke-miterlimit="10" d="
		M147.814,538.378c-4.169,4.886-14.478,2.963-22.986-4.31c-8.517-7.271-12.037-17.138-7.857-22.042
		c4.19-4.873,14.47-2.956,22.991,4.331C148.475,523.625,151.994,533.491,147.814,538.378z"/>
</g>
<radialGradient id="SVGID_3_" cx="81.4678" cy="295.2334" r="22.7585" gradientTransform="matrix(1.8109 0 0 1.3113 84.6676 -5.3267)" gradientUnits="userSpaceOnUse">
	<stop  offset="0" style="stop-color:#E51373"/>
	<stop  offset="0.1035" style="stop-color:#E7237C;stop-opacity:0.8965"/>
	<stop  offset="0.3059" style="stop-color:#EB4D95;stop-opacity:0.6941"/>
	<stop  offset="0.5874" style="stop-color:#F391BD;stop-opacity:0.4126"/>
	<stop  offset="0.934" style="stop-color:#FDEDF4;stop-opacity:0.066"/>
	<stop  offset="1" style="stop-color:#FFFFFF;stop-opacity:0"/>
</radialGradient>
<path fill="url(#SVGID_3_)" d="M273.408,381.809c0,16.479-18.452,29.841-41.21,29.841c-22.763,0-41.213-13.361-41.213-29.841
	c0-16.483,18.45-29.845,41.213-29.845C254.956,351.964,273.408,365.325,273.408,381.809z"/>
<radialGradient id="SVGID_4_" cx="191.9463" cy="299.2334" r="22.7583" gradientTransform="matrix(1.8109 0 0 1.3113 84.6676 -5.3267)" gradientUnits="userSpaceOnUse">
	<stop  offset="0" style="stop-color:#E51373"/>
	<stop  offset="0.1035" style="stop-color:#E7237C;stop-opacity:0.8965"/>
	<stop  offset="0.3059" style="stop-color:#EB4D95;stop-opacity:0.6941"/>
	<stop  offset="0.5874" style="stop-color:#F391BD;stop-opacity:0.4126"/>
	<stop  offset="0.934" style="stop-color:#FDEDF4;stop-opacity:0.066"/>
	<stop  offset="1" style="stop-color:#FFFFFF;stop-opacity:0"/>
</radialGradient>
<path fill="url(#SVGID_4_)" d="M473.47,387.054c0,16.48-18.45,29.841-41.211,29.841s-41.211-13.36-41.211-29.841
	c0-16.483,18.45-29.845,41.211-29.845S473.47,370.57,473.47,387.054z"/>
<g>
	<path fill="#FFFFFF" stroke="#221E1F" stroke-width="6" d="M219.184,318.645c-5.302,13.824,5.555,28.374,24.245,32.507
		c18.697,4.131,38.145-3.724,43.441-17.538c5.307-13.83-5.55-28.383-24.237-32.514C243.941,296.966,224.488,304.824,219.184,318.645
		z"/>
	<path fill="#231815" stroke="#221E1F" stroke-width="6" d="M275.02,326.345c0,12.265-8.634,22.202-19.285,22.202
		c-10.65,0-19.285-9.938-19.285-22.204c0-12.26,8.635-22.197,19.285-22.197C266.385,304.146,275.02,314.083,275.02,326.345z"/>
</g>
<g>
	<path fill="#FFFFFF" stroke="#221E1F" stroke-width="6" d="M379.236,318.645c-5.301,13.824,5.556,28.374,24.245,32.507
		c18.697,4.131,38.145-3.724,43.441-17.538c5.307-13.83-5.551-28.383-24.237-32.514
		C403.994,296.966,384.541,304.824,379.236,318.645z"/>
	<path fill="#231815" stroke="#221E1F" stroke-width="6" d="M435.072,326.345c0,12.265-8.635,22.202-19.285,22.202
		c-10.649,0-19.285-9.938-19.285-22.204c0-12.26,8.636-22.197,19.285-22.197C426.438,304.146,435.072,314.083,435.072,326.345z"/>
</g>
<path fill="none" stroke="#221E1F" stroke-width="6" d="M288.563,421.674c0,0,50.203,33.008,80.725-5.537"/>
<linearGradient id="SVGID_5_" gradientUnits="userSpaceOnUse" x1="327.5186" y1="621.4111" x2="315.717" y2="515.1971">
	<stop  offset="0" style="stop-color:#FFF100"/>
	<stop  offset="0.9945" style="stop-color:#652C90"/>
</linearGradient>
<path fill="url(#SVGID_5_)" stroke="#211D1E" stroke-width="6" d="M295.143,510.936c0,0-41.791,6.595-44.279,53.146
	c-1.437,27.073,138.338,17.6,138.591-2.277c0.159-12.73,8.439-37.985-53.048-58.132c0,0-3.174,13.882-17.205,19.213
	C305.185,528.203,295.143,510.936,295.143,510.936z"/>
</svg>
